:SAMPLES-PER-SECOND 30
:FRAME-RANGE 1-1700
:FULLY-SPECIFIED
:DEGREES
1647
root  -31.9072 38.6273 1.6929 174.914 18.0796 178.075
RightUpLeg  19.7118 -4.20713 -4.59193
RightLeg  10.4029 6.60272 -0.770581
RightFoot  -20.0613 0.35789 6.47355
RightToes  -1.16417e-010 0 -3.6325e-017
Spine  6.5823 -0.898249 -0.369595
Spine1  0.708297 -0.780364 -0.861509
HEad  2.96993 -55.4674 6.15205
LeftShoulder1  1.08512 0.450556 -29.4558
LeftArm  -4.34927 12.9579 -30.9307
LeftForeArm  12.2213 -2.97507 -16.2262
LeftHand  0.343694 0.19977 -7.77452
RightShoulder  8.86958 12.1554 49.6055
RightArm  12.8915 4.0024 16.8825
RightForeArm  21.1349 2.5239 16.5046
RightHand  0.239187 2.64716 3.24892
LeftUpLeg  -13.6329 7.34198 0.27964
LeftLeg  0.738745 21.5954 -4.4509
LeftFoot  13.338 -0.95563 3.99197
LeftToes  1.03528e-008 1.55373e-010 -2.26046e-010
1648
root  -31.9458 38.5678 0.215706 173.981 18.4969 176.138
RightUpLeg  19.1651 1.23052 -6.29256
RightLeg  16.3018 3.97462 0.682646
RightFoot  -19.6945 0.646329 10.6576
RightToes  -1.16417e-010 0 -3.6325e-017
Spine  6.59196 -0.75559 -3.06839
Spine1  0.376662 -0.868147 -0.975289
HEad  5.05567 -55.2811 5.00936
LeftShoulder1  1.01016 0.71672 -30.1667
LeftArm  -3.01007 11.9618 -29.9674
LeftForeArm  10.1831 -3.69929 -16.286
LeftHand  0.32991 0.383959 -7.76788
RightShoulder  8.31176 10.8686 50.6474
RightArm  8.95792 3.15848 15.9998
RightForeArm  24.3383 -1.21611 16.7967
RightHand  0.212012 2.60807 2.87354
LeftUpLeg  -14.5991 10.0442 -2.3692
LeftLeg  8.59199 19.3326 -2.02107
LeftFoot  8.50307 -0.67819 3.57921
LeftToes  1.03528e-008 1.55373e-010 -2.26046e-010
1649
root  -32.0419 38.5838 -1.10661 173.358 19.4407 174.908
RightUpLeg  15.6022 2.61854 -9.05052
RightLeg  26.2886 5.2453 2.59482
RightFoot  -16.0617 0.630342 17.8221
RightToes  -1.16417e-010 0 -3.6325e-017
Spine  6.73677 -0.4753 -3.81548
Spine1  0.344635 -0.567699 -2.52265
HEad  6.56862 -54.7154 3.67907
LeftShoulder1  1.03131 0.694944 -30.6442
LeftArm  -3.30789 10.4527 -29.7224
LeftForeArm  9.80306 -3.42595 -16.3617
LeftHand  0.306969 0.489045 -7.40452
RightShoulder  7.80654 10.0238 50.5451
RightArm  5.01852 1.69911 16.2127
RightForeArm  26.1711 -4.80044 16.5217
RightHand  0.22239 2.36066 3.14191
LeftUpLeg  -13.9546 13.1247 -4.1229
LeftLeg  12.2191 17.2254 -1.27154
LeftFoot  4.95306 -0.544652 3.59315
LeftToes  1.03528e-008 1.55373e-010 -2.26046e-010
1650
root  -32.15 38.6289 -2.27256 173.118 21.8557 174.054
RightUpLeg  8.65075 5.48476 -10.8141
RightLeg  38.9441 5.08736 4.13434
RightFoot  -8.07365 -0.696702 22.219
RightToes  -1.16417e-010 0 -3.6325e-017
Spine  6.87426 0.120529 -4.29981
Spine1  0.605183 0.0215705 -4.08074
HEad  6.13955 -53.2604 3.12546
LeftShoulder1  1.06454 0.616606 -30.8014
LeftArm  -4.39939 9.49505 -30.3113
LeftForeArm  10.6539 -3.62519 -16.1168
LeftHand  0.310669 0.333565 -7.23844
RightShoulder  7.91109 10.4561 49.6412
RightArm  4.87391 -0.0224046 16.9479
RightForeArm  24.6059 -6.16297 16.5883
RightHand  0.265274 2.17376 3.89449
LeftUpLeg  -12.9155 11.0495 -4.18477
LeftLeg  14.1858 21.5762 -0.653089
LeftFoot  2.16678 -0.387839 3.16344
LeftToes  1.03528e-008 1.55373e-010 -2.26046e-010
1651
root  -32.1829 38.6981 -3.4068 172.723 24.2433 173.364
RightUpLeg  0.795534 8.57413 -11.5337
RightLeg  50.8702 2.91219 3.4855
RightFoot  4.07821 -2.38914 17.7261
RightToes  -1.16417e-010 0 -3.6325e-017
Spine  7.04149 0.344097 -5.8811
Spine1  0.979023 -0.00328234 -3.95013
HEad  4.35663 -51.1532 3.76592
LeftShoulder1  1.08493 0.551938 -30.6842
LeftArm  -4.16785 9.07892 -31.1338
LeftForeArm  10.8611 -4.89595 -15.6895
LeftHand  0.32594 0.156808 -7.30862
RightShoulder  8.22816 11.0734 49.4415
RightArm  8.20695 -0.40083 17.2014
RightForeArm  23.9473 -5.4018 17.0854
RightHand  0.350278 2.37818 5.04413
LeftUpLeg  -11.4255 10.3569 -4.40878
LeftLeg  15.508 24.3756 -0.0413825
LeftFoot  -0.425953 -0.196117 2.07969
LeftToes  1.03528e-008 1.55373e-010 -2.26046e-010
1652
root  -32.1649 38.6912 -4.47265 171.662 25.8115 172.667
RightUpLeg  -4.92981 10.6435 -11.9929
RightLeg  59.2261 0.512812 0.465842
RightFoot  8.09599 -2.54584 15.113
RightToes  -1.16417e-010 0 -3.6325e-017
Spine  7.60035 0.132224 -8.3258
Spine1  1.72607 -0.754792 -3.36956
HEad  2.6566 -48.9551 4.81157
LeftShoulder1  1.1122 0.46087 -30.4798
LeftArm  -2.61979 8.26189 -31.7701
LeftForeArm  10.2686 -5.87829 -15.5042
LeftHand  0.319534 0.032555 -6.98195
RightShoulder  8.40446 11.2564 49.872
RightArm  11.4314 -0.0981469 17.2308
RightForeArm  25.4835 -4.80942 17.2962
RightHand  0.367251 2.83447 4.96606
LeftUpLeg  -9.52879 9.61417 -5.05548
LeftLeg  17.0636 26.4453 1.17311
LeftFoot  -2.83885 -0.0533812 0.948664
LeftToes  1.03528e-008 1.55373e-010 -2.26046e-010
1653
root  -32.1084 38.7767 -5.57965 171.314 26.3111 173.213
RightUpLeg  -9.4627 10.9441 -11.3119
RightLeg  64.3108 -1.01696 -2.89371
RightFoot  5.15147 -1.99515 13.9488
RightToes  -1.16417e-010 0 -3.6325e-017
Spine  7.66296 -0.497095 -9.86347
Spine1  2.43143 -1.92355 -1.93407
HEad  1.89573 -47.1548 5.04714
LeftShoulder1  1.17048 0.303111 -30.5019
LeftArm  -2.7194 6.14609 -32.1194
LeftForeArm  11.0396 -4.67773 -15.9234
LeftHand  0.30517 0.00256935 -6.62778
RightShoulder  7.99686 10.4863 50.0683
RightArm  14.019 -0.0114172 17.2224
RightForeArm  25.6398 -2.84931 17.3719
RightHand  0.335773 2.97004 4.43812
LeftUpLeg  -7.35711 9.84767 -5.02199
LeftLeg  17.5842 26.3969 1.82741
LeftFoot  -4.7898 0.0104006 0.322352
LeftToes  1.03528e-008 1.55373e-010 -2.26046e-010
1654
root  -32.0186 38.8975 -6.71133 171.562 26.1516 174.34
RightUpLeg  -13.3985 10.7314 -9.67148
RightLeg  65.8586 -2.0415 -5.61795
RightFoot  4.55249 -1.55946 11.3614
RightToes  -1.16417e-010 0 -3.6325e-017
Spine  7.46139 -1.24652 -10.7129
Spine1  2.64259 -3.05818 -0.315974
HEad  2.31337 -46.1039 4.54138
LeftShoulder1  1.23187 0.11941 -30.3316
LeftArm  -4.76145 3.11659 -32.7671
LeftForeArm  13.125 -1.74332 -16.4933
LeftHand  0.274811 0.224587 -6.2587
RightShoulder  7.30461 9.29074 50.0143
RightArm  15.4914 -0.580313 17.3373
RightForeArm  23.0318 0.0589415 17.191
RightHand  0.311667 2.9021 4.14284
LeftUpLeg  -5.22748 10.1843 -4.51903
LeftLeg  17.508 25.5938 1.96879
LeftFoot  -6.62031 0.0509435 -0.269971
LeftToes  1.03528e-008 1.55373e-010 -2.26046e-010
1655
root  -31.9117 39.0121 -7.82749 171.853 25.6038 175.37
RightUpLeg  -16.5277 10.2925 -7.97035
RightLeg  64.2055 -2.73884 -6.74635
RightFoot  3.45502 -1.28687 10.0694
RightToes  -1.16417e-010 0 -3.6325e-017
Spine  7.45276 -1.92118 -11.3526
Spine1  2.35341 -3.9749 1.07264
HEad  3.35368 -45.6534 4.06366
LeftShoulder1  1.27996 -0.0519111 -29.9275
LeftArm  -6.97461 -0.300422 -33.7153
LeftForeArm  15.2329 1.36372 -16.7154
LeftHand  0.261454 0.439702 -6.24817
RightShoulder  6.60448 8.09473 49.8904
RightArm  18.2644 -1.76729 17.5949
RightForeArm  17.8749 3.43334 16.7752
RightHand  0.320169 2.74705 4.35571
LeftUpLeg  -2.88361 10.3672 -4.08579
LeftLeg  16.6995 24.6362 1.73942
LeftFoot  -8.09324 0.0676475 -0.670837
LeftToes  1.03528e-008 1.55373e-010 -2.26046e-010
1656
root  -31.8103 39.0958 -8.91842 172.113 25.0899 176.35
RightUpLeg  -18.7157 9.88816 -6.18292
RightLeg  59.3207 -3.1659 -6.21939
RightFoot  2.44108 -1.12682 9.44185
RightToes  -1.16417e-010 0 -3.6325e-017
Spine  7.4969 -2.43725 -11.5358
Spine1  2.04304 -4.56034 2.01834
HEad  4.26974 -45.6762 3.81808
LeftShoulder1  1.36954 -0.341126 -29.5476
LeftArm  -8.47304 -3.49032 -34.8452
LeftForeArm  16.7751 3.26611 -16.6396
LeftHand  0.243557 0.668596 -6.14459
RightShoulder  6.09121 7.21153 49.8109
RightArm  21.22 -2.9196 17.902
RightForeArm  14.1574 6.02393 16.1818
RightHand  0.308842 2.66946 4.24107
LeftUpLeg  -0.533864 10.5434 -3.64818
LeftLeg  15.7758 23.8431 1.54857
LeftFoot  -9.40182 0.0730997 -0.983441
LeftToes  1.03528e-008 1.55373e-010 -2.26046e-010
